<?xml version="1.0" standalone="no"?>
<!DOCTYPE svg PUBLIC "-//W3C//DTD SVG 20010904//EN"
 "http://www.w3.org/TR/2001/REC-SVG-20010904/DTD/svg10.dtd">
<svg version="1.0" xmlns="http://www.w3.org/2000/svg"
 width="1600.000000pt" height="1200.000000pt" viewBox="0 0 1600.000000 1200.000000"
 preserveAspectRatio="xMidYMid meet">

<g transform="translate(0.000000,1200.000000) scale(0.100000,-0.100000)"
fill="#000000" stroke="none">
<path d="M8960 8040 c-70 -23 -141 -97 -160 -163 -11 -42 -19 -50 -99 -101
-92 -58 -182 -140 -265 -241 -184 -222 -280 -280 -507 -305 -140 -16 -332 0
-629 52 -232 41 -238 41 -490 42 -203 1 -278 -3 -365 -17 -673 -112 -1112
-441 -1247 -935 -18 -64 -21 -107 -22 -252 -1 -231 17 -312 143 -653 50 -135
38 -221 -60 -432 -117 -251 -150 -398 -129 -585 12 -106 46 -247 86 -352 25
-67 26 -68 96 -103 113 -56 210 -47 291 28 34 32 34 51 0 152 -20 61 -27 101
-27 170 -1 136 19 171 202 359 153 156 189 201 237 296 24 47 29 52 36 35 15
-38 9 -179 -11 -270 -53 -237 -28 -352 106 -503 68 -76 231 -200 327 -249 94
-47 200 -57 264 -24 45 22 83 64 83 91 0 9 -29 53 -64 98 -96 122 -121 179
-120 277 0 99 11 124 140 328 53 84 97 153 98 153 0 1 69 -9 151 -22 226 -36
484 -64 630 -70 186 -8 171 0 180 -91 17 -189 64 -356 145 -511 77 -149 110
-188 188 -225 102 -48 231 -42 290 14 29 26 28 50 -8 206 -29 128 -64 342 -57
350 2 2 27 -35 56 -83 72 -118 189 -259 318 -386 136 -134 208 -172 318 -172
81 0 149 27 190 76 35 41 32 69 -19 162 -155 287 -186 532 -96 774 28 74 69
153 178 342 223 386 310 637 345 995 16 157 31 202 83 241 55 43 116 55 329
65 298 14 400 36 511 107 114 74 187 180 228 332 82 306 39 528 -132 680 -136
122 -431 227 -732 261 -128 14 -533 6 -665 -14 -81 -13 -91 -13 -99 2 -19 32
-69 71 -104 81 -52 14 -79 12 -142 -10z m1400 -285 c200 -76 287 -141 341
-251 55 -110 52 -279 -7 -464 -13 -43 -32 -88 -42 -100 -33 -41 -124 -46 -217
-10 l-28 10 57 60 c59 61 96 130 117 213 7 28 17 47 25 47 30 0 54 39 54 86 0
90 -17 122 -120 225 -108 107 -157 144 -262 195 -90 44 -45 38 82 -11z m-60
-895 c21 -16 62 -41 91 -54 32 -15 47 -27 38 -30 -61 -21 -124 -28 -339 -41
-292 -17 -350 -30 -428 -100 -71 -64 -90 -115 -107 -293 -39 -379 -112 -592
-345 -997 -186 -324 -228 -432 -237 -621 -9 -169 28 -323 126 -524 25 -52 48
-99 50 -105 2 -5 -29 22 -69 60 -189 184 -278 407 -268 669 8 189 40 273 239
622 193 337 253 525 293 916 24 233 36 268 107 333 96 86 258 133 569 165 118
12 217 24 219 26 10 9 25 3 61 -26z m-4877 -770 c125 -262 364 -482 703 -651
154 -77 203 -124 235 -231 28 -90 22 -157 -34 -372 -34 -132 -41 -178 -42
-256 0 -87 3 -101 33 -164 40 -84 176 -226 266 -277 65 -36 61 -49 -8 -26 -95
32 -278 172 -349 266 -82 110 -92 183 -52 385 29 145 31 199 10 279 -29 113
-45 132 -153 186 -397 199 -618 487 -678 881 -7 52 -14 127 -13 165 l0 70 23
-90 c13 -50 40 -124 59 -165z m1708 -675 c94 -65 224 -132 326 -168 248 -89
515 -72 757 48 82 41 88 43 82 22 -12 -48 -36 -214 -36 -249 0 -20 -6 -43 -14
-51 -8 -8 -50 -20 -93 -28 -100 -18 -524 -18 -678 -1 -122 14 -528 71 -531 75
-2 1 11 41 27 87 34 96 68 239 69 288 0 17 2 32 5 32 2 0 41 -25 86 -55z"/>
</g>
</svg>
